<svg id="visual" viewBox="0 0 960 540" width="960" height="540" xmlns="http://www.w3.org/2000/svg" xmlns:xlink="http://www.w3.org/1999/xlink" version="1.1"><path d="M0 332L26.7 340.7C53.3 349.3 106.7 366.7 160 368.5C213.3 370.3 266.7 356.7 320 355.2C373.3 353.7 426.7 364.3 480 370.5C533.3 376.7 586.7 378.3 640 376.8C693.3 375.3 746.7 370.7 800 362.2C853.3 353.7 906.7 341.3 933.3 335.2L960 329L960 541L933.3 541C906.7 541 853.3 541 800 541C746.7 541 693.3 541 640 541C586.7 541 533.3 541 480 541C426.7 541 373.3 541 320 541C266.7 541 213.3 541 160 541C106.7 541 53.3 541 26.7 541L0 541Z" fill="#007cff"></path><path d="M0 413L26.7 413C53.3 413 106.7 413 160 407.8C213.3 402.7 266.7 392.3 320 386.7C373.3 381 426.7 380 480 384.5C533.3 389 586.7 399 640 402.7C693.3 406.3 746.7 403.7 800 397.3C853.3 391 906.7 381 933.3 376L960 371L960 541L933.3 541C906.7 541 853.3 541 800 541C746.7 541 693.3 541 640 541C586.7 541 533.3 541 480 541C426.7 541 373.3 541 320 541C266.7 541 213.3 541 160 541C106.7 541 53.3 541 26.7 541L0 541Z" fill="#2d4681"></path><path d="M0 430L26.7 432.3C53.3 434.7 106.7 439.3 160 443.2C213.3 447 266.7 450 320 450.8C373.3 451.7 426.7 450.3 480 448.8C533.3 447.3 586.7 445.7 640 445.5C693.3 445.3 746.7 446.7 800 448.7C853.3 450.7 906.7 453.3 933.3 454.7L960 456L960 541L933.3 541C906.7 541 853.3 541 800 541C746.7 541 693.3 541 640 541C586.7 541 533.3 541 480 541C426.7 541 373.3 541 320 541C266.7 541 213.3 541 160 541C106.7 541 53.3 541 26.7 541L0 541Z" fill="#171717"></path></svg>