<svg id="visual" viewBox="0 0 1920 1080" width="1920" height="1080" xmlns="http://www.w3.org/2000/svg" xmlns:xlink="http://www.w3.org/1999/xlink" version="1.1"><path d="M0 665L53.3 682.3C106.7 699.7 213.3 734.3 320 738.2C426.7 742 533.3 715 640 712.2C746.7 709.3 853.3 730.7 960 743C1066.7 755.3 1173.3 758.7 1280 755.5C1386.7 752.3 1493.3 742.7 1600 725.7C1706.7 708.7 1813.3 684.3 1866.7 672.2L1920 660L1920 1081L1866.7 1081C1813.3 1081 1706.7 1081 1600 1081C1493.3 1081 1386.7 1081 1280 1081C1173.3 1081 1066.7 1081 960 1081C853.3 1081 746.7 1081 640 1081C533.3 1081 426.7 1081 320 1081C213.3 1081 106.7 1081 53.3 1081L0 1081Z" fill="#007cff"></path><path d="M0 828L53.3 828C106.7 828 213.3 828 320 817.3C426.7 806.7 533.3 785.3 640 773.7C746.7 762 853.3 760 960 769.2C1066.7 778.3 1173.3 798.7 1280 806.2C1386.7 813.7 1493.3 808.3 1600 795.5C1706.7 782.7 1813.3 762.3 1866.7 752.2L1920 742L1920 1081L1866.7 1081C1813.3 1081 1706.7 1081 1600 1081C1493.3 1081 1386.7 1081 1280 1081C1173.3 1081 1066.7 1081 960 1081C853.3 1081 746.7 1081 640 1081C533.3 1081 426.7 1081 320 1081C213.3 1081 106.7 1081 53.3 1081L0 1081Z" fill="#2d4681"></path><path d="M0 862L53.3 866.3C106.7 870.7 213.3 879.3 320 886.8C426.7 894.3 533.3 900.7 640 902.5C746.7 904.3 853.3 901.7 960 898.8C1066.7 896 1173.3 893 1280 892.8C1386.7 892.7 1493.3 895.3 1600 899C1706.7 902.7 1813.3 907.3 1866.7 909.7L1920 912L1920 1081L1866.7 1081C1813.3 1081 1706.7 1081 1600 1081C1493.3 1081 1386.7 1081 1280 1081C1173.3 1081 1066.7 1081 960 1081C853.3 1081 746.7 1081 640 1081C533.3 1081 426.7 1081 320 1081C213.3 1081 106.7 1081 53.3 1081L0 1081Z" fill="#171717"></path></svg>