<svg id="visual" viewBox="0 0 540 960" width="540" height="960" xmlns="http://www.w3.org/2000/svg" xmlns:xlink="http://www.w3.org/1999/xlink" version="1.1"><path d="M0 473L30 479.8C60 486.7 120 500.3 180 507.3C240 514.3 300 514.7 360 519.2C420 523.7 480 532.3 510 536.7L540 541L540 961L510 961C480 961 420 961 360 961C300 961 240 961 180 961C120 961 60 961 30 961L0 961Z" fill="#59b3ff"></path><path d="M0 627L30 630.8C60 634.7 120 642.3 180 646.8C240 651.3 300 652.7 360 653.5C420 654.3 480 654.7 510 654.8L540 655L540 961L510 961C480 961 420 961 360 961C300 961 240 961 180 961C120 961 60 961 30 961L0 961Z" fill="#4b6c8f"></path><path d="M0 736L30 735C60 734 120 732 180 733.2C240 734.3 300 738.7 360 740.2C420 741.7 480 740.3 510 739.7L540 739L540 961L510 961C480 961 420 961 360 961C300 961 240 961 180 961C120 961 60 961 30 961L0 961Z" fill="#2d2d2d"></path></svg>