<svg id="visual" viewBox="0 0 960 540" width="960" height="540" xmlns="http://www.w3.org/2000/svg" xmlns:xlink="http://www.w3.org/1999/xlink" version="1.1"><path d="M0 327L20 320.3C40 313.7 80 300.3 120 298C160 295.7 200 304.3 240 298.2C280 292 320 271 360 273.2C400 275.3 440 300.7 480 307C520 313.3 560 300.7 600 292.8C640 285 680 282 720 283.7C760 285.3 800 291.7 840 298.5C880 305.3 920 312.7 940 316.3L960 320L960 541L940 541C920 541 880 541 840 541C800 541 760 541 720 541C680 541 640 541 600 541C560 541 520 541 480 541C440 541 400 541 360 541C320 541 280 541 240 541C200 541 160 541 120 541C80 541 40 541 20 541L0 541Z" fill="#59b3ff"></path><path d="M0 374L20 369C40 364 80 354 120 350.2C160 346.3 200 348.7 240 354.3C280 360 320 369 360 369.8C400 370.7 440 363.3 480 364.7C520 366 560 376 600 378.8C640 381.7 680 377.3 720 378.2C760 379 800 385 840 378C880 371 920 351 940 341L960 331L960 541L940 541C920 541 880 541 840 541C800 541 760 541 720 541C680 541 640 541 600 541C560 541 520 541 480 541C440 541 400 541 360 541C320 541 280 541 240 541C200 541 160 541 120 541C80 541 40 541 20 541L0 541Z" fill="#4b6c8f"></path><path d="M0 408L20 410.2C40 412.3 80 416.7 120 415.7C160 414.7 200 408.3 240 409.3C280 410.3 320 418.7 360 422.3C400 426 440 425 480 419.8C520 414.7 560 405.3 600 407.5C640 409.7 680 423.3 720 427C760 430.7 800 424.3 840 419C880 413.7 920 409.3 940 407.2L960 405L960 541L940 541C920 541 880 541 840 541C800 541 760 541 720 541C680 541 640 541 600 541C560 541 520 541 480 541C440 541 400 541 360 541C320 541 280 541 240 541C200 541 160 541 120 541C80 541 40 541 20 541L0 541Z" fill="#2d2d2d"></path></svg>