<svg id="visual" viewBox="0 0 900 600" width="900" height="600" xmlns="http://www.w3.org/2000/svg" xmlns:xlink="http://www.w3.org/1999/xlink" version="1.1"><path d="M0 409L18.8 410.5C37.7 412 75.3 415 112.8 417.3C150.3 419.7 187.7 421.3 225.2 417.3C262.7 413.3 300.3 403.7 337.8 397.2C375.3 390.7 412.7 387.3 450.2 396.3C487.7 405.3 525.3 426.7 562.8 434.5C600.3 442.3 637.7 436.7 675.2 430.2C712.7 423.7 750.3 416.3 787.8 409.5C825.3 402.7 862.7 396.3 881.3 393.2L900 390L900 601L881.3 601C862.7 601 825.3 601 787.8 601C750.3 601 712.7 601 675.2 601C637.7 601 600.3 601 562.8 601C525.3 601 487.7 601 450.2 601C412.7 601 375.3 601 337.8 601C300.3 601 262.7 601 225.2 601C187.7 601 150.3 601 112.8 601C75.3 601 37.7 601 18.8 601L0 601Z" fill="#9147ff"></path><path d="M0 458L18.8 457.3C37.7 456.7 75.3 455.3 112.8 460.7C150.3 466 187.7 478 225.2 484C262.7 490 300.3 490 337.8 490.7C375.3 491.3 412.7 492.7 450.2 484.7C487.7 476.7 525.3 459.3 562.8 453C600.3 446.7 637.7 451.3 675.2 455.5C712.7 459.7 750.3 463.3 787.8 465.5C825.3 467.7 862.7 468.3 881.3 468.7L900 469L900 601L881.3 601C862.7 601 825.3 601 787.8 601C750.3 601 712.7 601 675.2 601C637.7 601 600.3 601 562.8 601C525.3 601 487.7 601 450.2 601C412.7 601 375.3 601 337.8 601C300.3 601 262.7 601 225.2 601C187.7 601 150.3 601 112.8 601C75.3 601 37.7 601 18.8 601L0 601Z" fill="#452894"></path><path d="M0 531L18.8 530.5C37.7 530 75.3 529 112.8 528.5C150.3 528 187.7 528 225.2 525.7C262.7 523.3 300.3 518.7 337.8 520.3C375.3 522 412.7 530 450.2 528C487.7 526 525.3 514 562.8 513.5C600.3 513 637.7 524 675.2 525.2C712.7 526.3 750.3 517.7 787.8 514.5C825.3 511.3 862.7 513.7 881.3 514.8L900 516L900 601L881.3 601C862.7 601 825.3 601 787.8 601C750.3 601 712.7 601 675.2 601C637.7 601 600.3 601 562.8 601C525.3 601 487.7 601 450.2 601C412.7 601 375.3 601 337.8 601C300.3 601 262.7 601 225.2 601C187.7 601 150.3 601 112.8 601C75.3 601 37.7 601 18.8 601L0 601Z" fill="#9147ff"></path></svg>